# 3ds Max Wavefront OBJ Exporter v0.97b - (c)2007 guruware
# File Created: 19.01.2018 13:22:30

mtllib Marine.mtl

#
# object Box001
#

v  -32.4922 0.0509 15.5744
v  -32.4403 0.0505 4.6738
v  32.4403 0.0505 4.6738
v  32.4922 0.0509 15.5744
v  -38.1706 40.2168 22.0219
v  38.1706 40.2168 22.0219
v  38.1706 40.2168 -22.0219
v  -38.1706 40.2168 -22.0219
v  28.9436 38.4035 12.2117
v  38.1706 39.0603 22.0219
v  -38.1706 39.0603 22.0219
v  -28.9436 38.4035 12.2117
v  -25.3464 38.4035 12.2117
v  -24.2713 38.4035 12.2117
v  -19.8444 38.4035 12.2117
v  -18.7471 38.4035 12.2117
v  -14.3503 38.4035 12.2117
v  -13.2151 38.4035 12.2117
v  -8.8396 38.4035 12.2117
v  -7.6996 38.4035 12.2117
v  -3.3891 38.4035 12.2117
v  -2.1240 38.4035 12.2117
v  2.1915 38.4035 12.2117
v  3.3216 38.4035 12.2117
v  7.6172 38.4035 12.2117
v  8.9220 38.4035 12.2117
v  13.1526 38.4035 12.2117
v  14.4127 38.4035 12.2117
v  18.6395 38.4035 12.2117
v  19.9520 38.4035 12.2117
v  24.1604 38.4035 12.2117
v  25.4573 38.4035 12.2117
v  38.1706 38.4035 -22.0219
v  38.1706 39.0603 -22.0219
v  28.9435 38.4061 4.6894
v  32.2020 38.4061 4.6024
v  37.8807 38.4017 -8.0111
v  -38.1706 38.4035 -22.0219
v  -38.1706 39.0603 -22.0219
v  -37.8807 38.4017 -10.3706
v  -32.2020 38.4061 4.6024
v  -28.9435 38.4061 4.6894
v  -28.9436 18.8846 12.2117
v  -32.4922 18.7977 15.5744
v  32.4922 18.7977 15.5744
v  28.9436 18.8846 12.2117
v  25.4573 18.8846 12.2117
v  24.1604 18.8846 12.2117
v  19.9520 18.8846 12.2117
v  18.6395 18.8846 12.2117
v  14.4127 18.8846 12.2117
v  13.1526 18.8846 12.2117
v  8.9220 18.8846 12.2117
v  7.6172 18.8846 12.2117
v  3.3216 18.8846 12.2117
v  2.1915 18.8846 12.2117
v  -2.1240 18.8846 12.2117
v  -3.3891 18.8846 12.2117
v  -7.6996 18.8846 12.2117
v  -8.8396 18.8846 12.2117
v  -13.2151 18.8846 12.2117
v  -14.3503 18.8846 12.2117
v  -18.7471 18.8846 12.2117
v  -19.8444 18.8846 12.2117
v  -24.2713 18.8846 12.2117
v  -25.3464 18.8846 12.2117
v  32.2023 18.7958 4.6023
v  28.9436 18.8846 4.6894
v  38.1706 19.2272 -22.0219
v  35.0534 19.2272 -22.0219
v  -35.0534 19.2272 -22.0219
v  -38.1706 19.2272 -22.0219
v  -38.1706 0.0509 -22.0219
v  -38.3676 0.0521 -10.2244
v  -35.0534 0.0509 -22.0219
v  35.0534 0.0509 -22.0219
v  38.1706 0.0509 -22.0219
v  38.3676 0.0521 -7.8649
v  -34.2225 0.7234 -3.8292
v  -33.8284 0.7217 -0.0466
v  -33.5966 18.7938 -0.1156
v  -33.6027 37.7308 -0.1137
v  -33.7638 37.7271 -3.9710
v  33.8572 0.7217 0.6173
v  34.2200 0.7229 -2.5653
v  33.7684 37.7266 -2.7223
v  33.6350 37.7308 0.5425
v  33.6290 18.7940 0.5403
v  -28.9436 18.8846 4.6894
v  -32.2023 18.7958 4.6023
v  35.0534 0.0509 -36.0100
v  -35.0534 0.0509 -36.0100
v  -35.0534 19.2272 -36.0100
v  35.0534 19.2272 -36.0100
v  -35.7932 0.0000 18.4872
v  -36.1267 0.0000 18.7295
v  -36.5390 0.0000 18.7295
v  -36.8725 0.0000 18.4872
v  -36.9999 0.0000 18.0951
v  -36.8725 0.0000 17.7030
v  -36.5390 0.0000 17.4607
v  -36.1267 0.0000 17.4607
v  -35.7932 0.0000 17.7030
v  -35.6658 0.0000 18.0951
v  -35.7932 39.2581 17.7030
v  -35.6658 39.2581 18.0951
v  -36.1267 39.2581 17.4607
v  -36.5390 39.2581 17.4607
v  -36.8725 39.2581 17.7030
v  -36.9999 39.2581 18.0951
v  -36.8725 39.2581 18.4872
v  -36.5390 39.2581 18.7295
v  -36.1267 39.2581 18.7295
v  -35.7932 39.2581 18.4872
v  29.5711 0.0000 18.4872
v  29.2376 0.0000 18.7295
v  28.8253 0.0000 18.7295
v  28.4918 0.0000 18.4872
v  28.3644 0.0000 18.0951
v  28.4918 0.0000 17.7030
v  28.8253 0.0000 17.4607
v  29.2376 0.0000 17.4607
v  29.5711 0.0000 17.7030
v  29.6985 0.0000 18.0951
v  29.5711 39.2581 17.7030
v  29.6985 39.2581 18.0951
v  29.2376 39.2581 17.4607
v  28.8253 39.2581 17.4607
v  28.4918 39.2581 17.7030
v  28.3644 39.2581 18.0951
v  28.4918 39.2581 18.4872
v  28.8253 39.2581 18.7295
v  29.2376 39.2581 18.7295
v  29.5711 39.2581 18.4872
v  35.0593 0.0000 18.4872
v  34.7258 0.0000 18.7295
v  34.3135 0.0000 18.7295
v  33.9800 0.0000 18.4872
v  33.8526 0.0000 18.0951
v  33.9800 0.0000 17.7030
v  34.3135 0.0000 17.4607
v  34.7258 0.0000 17.4607
v  35.0593 0.0000 17.7030
v  35.1867 0.0000 18.0951
v  35.0593 39.2581 17.7030
v  35.1867 39.2581 18.0951
v  34.7258 39.2581 17.4607
v  34.3135 39.2581 17.4607
v  33.9800 39.2581 17.7030
v  33.8526 39.2581 18.0951
v  33.9800 39.2581 18.4872
v  34.3135 39.2581 18.7295
v  34.7258 39.2581 18.7295
v  35.0593 39.2581 18.4872
v  -24.4837 38.4035 14.8842
v  -25.1340 38.4035 14.8842
v  -25.1340 18.8846 14.8842
v  -24.4837 18.8846 14.8842
v  -18.9639 38.4035 14.8842
v  -19.6277 38.4035 14.8842
v  -19.6277 18.8846 14.8842
v  -18.9639 18.8846 14.8842
v  -13.4393 38.4035 14.8842
v  -14.1260 38.4035 14.8842
v  -14.1260 18.8846 14.8842
v  -13.4393 18.8846 14.8842
v  -7.9248 38.4035 14.8842
v  -8.6144 38.4035 14.8842
v  -8.6144 18.8846 14.8842
v  -7.9248 18.8846 14.8842
v  -2.3739 38.4035 14.8842
v  -3.1392 38.4035 14.8842
v  -3.1392 18.8846 14.8842
v  -2.3739 18.8846 14.8842
v  24.4166 18.8846 14.8842
v  25.2011 18.8846 14.8842
v  25.2011 38.4035 14.8842
v  24.4166 38.4035 14.8842
v  18.8988 18.8846 14.8842
v  19.6928 18.8846 14.8842
v  19.6928 38.4035 14.8842
v  18.8988 38.4035 14.8842
v  13.4016 18.8846 14.8842
v  14.1638 18.8846 14.8842
v  14.1638 38.4035 14.8842
v  13.4016 38.4035 14.8842
v  7.8750 18.8846 14.8842
v  8.6642 18.8846 14.8842
v  8.6642 38.4035 14.8842
v  7.8750 38.4035 14.8842
v  2.4147 18.8846 14.8842
v  3.0983 18.8846 14.8842
v  3.0983 38.4035 14.8842
v  2.4147 38.4035 14.8842
v  -35.3387 37.7288 -3.8855
v  -34.0149 37.7328 0.0086
v  -35.8132 0.7251 -3.7442
v  -34.2406 0.7237 0.0757
v  -34.0088 18.7958 0.0067
v  35.8019 0.7251 -2.3857
v  34.2607 0.7237 0.7595
v  35.3348 37.7288 -2.5432
v  34.0386 37.7328 0.6847
v  34.0326 18.7960 0.6826
# 204 vertices

vn -0.5786 -0.5771 0.5763
vn -0.6599 -0.7436 0.1083
vn 0.6488 -0.7506 0.1254
vn 0.5786 -0.5771 0.5763
vn -0.5774 0.5774 0.5774
vn 0.5774 0.5774 0.5774
vn 0.5774 0.5774 -0.5774
vn -0.5774 0.5774 -0.5774
vn 0.3434 -0.8790 0.3309
vn 0.5856 -0.5589 0.5871
vn -0.5856 -0.5589 0.5871
vn -0.3434 -0.8790 0.3309
vn -0.5251 -0.5455 0.6532
vn 0.5251 -0.5455 0.6532
vn -0.5247 -0.5456 0.6535
vn 0.5247 -0.5456 0.6535
vn -0.5239 -0.5458 0.6540
vn 0.5239 -0.5458 0.6540
vn -0.5238 -0.5458 0.6540
vn 0.5238 -0.5458 0.6540
vn -0.5214 -0.5462 0.6556
vn 0.5214 -0.5462 0.6556
vn -0.5240 -0.5457 0.6539
vn 0.5240 -0.5457 0.6539
vn -0.5206 -0.5464 0.6560
vn 0.5206 -0.5464 0.6560
vn -0.5215 -0.5462 0.6555
vn 0.5215 -0.5462 0.6555
vn -0.5205 -0.5464 0.6561
vn 0.5205 -0.5464 0.6561
vn -0.5208 -0.5464 0.6559
vn 0.5208 -0.5464 0.6559
vn 0.7134 0.0000 -0.7007
vn 0.7071 0.0000 -0.7071
vn 0.5853 -0.5791 0.5675
vn 0.4560 0.6029 0.6547
vn 0.7267 0.6708 0.1481
vn -0.7147 0.0000 -0.6994
vn -0.7071 0.0000 -0.7071
vn -0.7250 0.6767 0.1281
vn -0.4758 0.5990 0.6440
vn -0.5853 -0.5791 0.5675
vn -0.3154 0.8957 0.3135
vn -0.5877 0.5695 0.5747
vn 0.5878 0.5694 0.5746
vn 0.3154 0.8957 0.3135
vn 0.5388 0.5686 0.6216
vn -0.5388 0.5686 0.6216
vn 0.5385 0.5687 0.6218
vn -0.5385 0.5687 0.6218
vn 0.5395 0.5685 0.6211
vn -0.5395 0.5685 0.6211
vn 0.5386 0.5687 0.6217
vn -0.5386 0.5687 0.6217
vn 0.5421 0.5680 0.6192
vn -0.5421 0.5680 0.6192
vn 0.5394 0.5685 0.6211
vn -0.5394 0.5685 0.6211
vn 0.5419 0.5681 0.6193
vn -0.5419 0.5681 0.6193
vn 0.5420 0.5681 0.6193
vn -0.5420 0.5681 0.6193
vn 0.5428 0.5679 0.6187
vn -0.5428 0.5679 0.6187
vn 0.5433 0.5678 0.6184
vn -0.5433 0.5678 0.6184
vn 0.8278 0.2867 0.4822
vn 0.5960 0.5660 0.5696
vn 0.7081 0.0030 -0.7061
vn 0.3015 0.3015 -0.9045
vn -0.3015 0.3015 -0.9045
vn -0.7083 0.0030 -0.7059
vn -0.5727 -0.5782 -0.5811
vn -0.7356 -0.6673 0.1168
vn -0.3015 -0.9046 -0.3014
vn 0.3015 -0.9046 -0.3014
vn 0.5736 -0.5780 -0.5805
vn 0.7365 -0.6620 0.1393
vn -0.5283 0.5821 0.6181
vn -0.6720 0.5956 -0.4401
vn 0.9462 -0.0045 -0.3236
vn -0.6645 -0.5924 -0.4556
vn -0.5518 -0.5722 0.6067
vn 0.6840 0.5986 -0.4170
vn 0.5054 0.5791 0.6397
vn 0.5327 -0.5685 0.6270
vn 0.6746 -0.5962 -0.4353
vn 0.9292 0.0044 0.3696
vn -0.5960 0.5660 0.5696
vn -0.8429 0.2880 0.4544
vn 0.5774 -0.5774 -0.5774
vn -0.5774 -0.5774 -0.5774
vn 0.6405 -0.6463 0.4148
vn 0.2628 -0.6378 0.7240
vn -0.2628 -0.6378 0.7240
vn -0.6405 -0.6463 0.4148
vn -0.7593 -0.6508 -0.0000
vn -0.6405 -0.6463 -0.4148
vn -0.2628 -0.6378 -0.7240
vn 0.2628 -0.6378 -0.7240
vn 0.6405 -0.6463 -0.4148
vn 0.7593 -0.6508 -0.0000
vn 0.6405 0.6463 -0.4148
vn 0.7593 0.6508 -0.0000
vn 0.2628 0.6378 -0.7240
vn -0.2628 0.6378 -0.7240
vn -0.6405 0.6463 -0.4148
vn -0.7593 0.6508 -0.0000
vn -0.6405 0.6463 0.4148
vn -0.2628 0.6378 0.7240
vn 0.2628 0.6378 0.7240
vn 0.6405 0.6463 0.4148
vn 0.5553 0.5811 0.5950
vn -0.5553 0.5811 0.5950
vn -0.5553 -0.5811 0.5950
vn 0.5553 -0.5811 0.5950
vn 0.5549 0.5811 0.5953
vn -0.5549 0.5811 0.5953
vn -0.5549 -0.5811 0.5953
vn 0.5549 -0.5811 0.5953
vn 0.5541 0.5813 0.5959
vn -0.5541 0.5813 0.5959
vn -0.5541 -0.5813 0.5959
vn 0.5541 -0.5813 0.5959
vn 0.5540 0.5813 0.5960
vn -0.5540 0.5813 0.5960
vn -0.5540 -0.5813 0.5960
vn 0.5540 -0.5813 0.5960
vn 0.5514 0.5817 0.5980
vn -0.5514 0.5817 0.5980
vn -0.5514 -0.5817 0.5980
vn 0.5514 -0.5817 0.5980
vn -0.5507 -0.5818 0.5985
vn 0.5507 -0.5818 0.5985
vn 0.5507 0.5818 0.5985
vn -0.5507 0.5818 0.5985
vn -0.5504 -0.5819 0.5987
vn 0.5504 -0.5819 0.5987
vn 0.5504 0.5819 0.5987
vn -0.5504 0.5819 0.5987
vn -0.5515 -0.5817 0.5979
vn 0.5515 -0.5817 0.5979
vn 0.5515 0.5817 0.5979
vn -0.5515 0.5817 0.5979
vn -0.5505 -0.5819 0.5986
vn 0.5505 -0.5819 0.5986
vn 0.5505 0.5819 0.5986
vn -0.5505 0.5819 0.5986
vn -0.5542 -0.5813 0.5958
vn 0.5542 -0.5813 0.5958
vn 0.5542 0.5813 0.5958
vn -0.5542 0.5813 0.5958
vn -0.7549 -0.3981 0.5212
vn -0.9859 -0.1663 -0.0188
vn -0.7979 0.1822 0.5745
vn -0.9356 0.3528 0.0139
vn -0.8970 0.0031 -0.4420
vn 0.7621 0.1834 0.6210
vn 0.9327 0.3543 0.0678
vn 0.7230 -0.4047 0.5599
vn 0.9863 -0.1619 0.0324
vn 0.9205 0.0032 -0.3907
# 162 vertex normals

vt 1.0000 0.0000 0.0000
vt 1.0000 0.2500 0.0000
vt 0.0000 0.2500 0.0000
vt 0.0000 0.0000 0.0000
vt 1.0000 1.0000 0.0000
vt 0.0000 1.0000 0.0000
vt 1.0000 0.9549 0.0000
vt 1.0000 0.9712 0.0000
vt 0.0000 0.9712 0.0000
vt 0.0000 0.9549 0.0000
vt 0.0476 0.9549 0.0000
vt 0.0952 0.9549 0.0000
vt 0.1429 0.9549 0.0000
vt 0.1905 0.9549 0.0000
vt 0.2381 0.9549 0.0000
vt 0.2857 0.9549 0.0000
vt 0.3333 0.9549 0.0000
vt 0.3810 0.9549 0.0000
vt 0.4286 0.9549 0.0000
vt 0.4762 0.9549 0.0000
vt 0.5238 0.9549 0.0000
vt 0.5714 0.9549 0.0000
vt 0.6190 0.9549 0.0000
vt 0.6667 0.9549 0.0000
vt 0.7143 0.9549 0.0000
vt 0.7619 0.9549 0.0000
vt 0.8095 0.9549 0.0000
vt 0.8571 0.9549 0.0000
vt 0.9048 0.9549 0.0000
vt 0.9524 0.9549 0.0000
vt 0.2266 0.9549 0.0000
vt 0.2500 0.9381 0.0000
vt 0.5000 0.9549 0.0000
vt 0.7365 0.9549 0.0000
vt 0.7500 0.9388 0.0000
vt 0.0000 0.4881 0.0000
vt 0.0000 0.4667 0.0000
vt 1.0000 0.4667 0.0000
vt 1.0000 0.4881 0.0000
vt 0.9524 0.4881 0.0000
vt 0.9048 0.4881 0.0000
vt 0.8571 0.4881 0.0000
vt 0.8095 0.4881 0.0000
vt 0.7619 0.4881 0.0000
vt 0.7143 0.4881 0.0000
vt 0.6667 0.4881 0.0000
vt 0.6190 0.4881 0.0000
vt 0.5714 0.4881 0.0000
vt 0.5238 0.4881 0.0000
vt 0.4762 0.4881 0.0000
vt 0.4286 0.4881 0.0000
vt 0.3810 0.4881 0.0000
vt 0.3333 0.4881 0.0000
vt 0.2857 0.4881 0.0000
vt 0.2381 0.4881 0.0000
vt 0.1905 0.4881 0.0000
vt 0.1429 0.4881 0.0000
vt 0.0952 0.4881 0.0000
vt 0.0476 0.4881 0.0000
vt 0.2500 0.4667 0.0000
vt 0.2500 0.4881 0.0000
vt 0.0000 0.4774 0.0000
vt 0.0408 0.4774 0.0000
vt 0.9592 0.4774 0.0000
vt 1.0000 0.4774 0.0000
vt 0.5000 0.0000 0.0000
vt 1.0000 0.5000 0.0000
vt 0.9592 1.0000 0.0000
vt 0.0408 1.0000 0.0000
vt 0.0000 0.5000 0.0000
vt 0.7500 0.0000 0.0000
vt 0.7500 0.4667 0.0000
vt 0.2500 0.0000 0.0000
vt 0.7500 0.4881 0.0000
vt 0.0408 0.0000 0.0000
vt 0.9592 0.0000 0.0000
vt 0.3382 0.0000 -0.0000
vt 0.1219 0.0000 -0.6180
vt 0.0500 0.0000 -1.0000
vt 0.1500 0.0000 -1.0000
vt 0.3837 0.0000 -0.6180
vt 0.6618 0.0000 0.0000
vt 0.8781 0.0000 0.6180
vt 0.9500 0.0000 1.0000
vt 0.8500 0.0000 1.0000
vt 0.7500 0.0000 1.0000
vt 0.8500 1.0000 1.0000
vt 0.7500 1.0000 1.0000
vt 0.9500 1.0000 1.0000
vt -0.0500 0.0000 1.0000
vt 0.0500 0.0000 1.0000
vt 0.0500 1.0000 1.0000
vt -0.0500 1.0000 1.0000
vt 0.1500 0.0000 1.0000
vt 0.1500 1.0000 1.0000
vt 0.2500 0.0000 1.0000
vt 0.2500 1.0000 1.0000
vt 0.3500 0.0000 1.0000
vt 0.3500 1.0000 1.0000
vt 0.4500 0.0000 1.0000
vt 0.4500 1.0000 1.0000
vt 0.5500 0.0000 1.0000
vt 0.5500 1.0000 1.0000
vt 0.6500 0.0000 1.0000
vt 0.6500 1.0000 1.0000
vt 0.8781 1.0000 0.6180
vt 0.6618 1.0000 -0.0000
vt 0.3837 1.0000 -0.6180
vt 0.1500 1.0000 -1.0000
vt 0.0500 1.0000 -1.0000
vt 0.1219 1.0000 -0.6180
# 111 texture coords

o Box001
g Box001
usemtl wire_086086086
s off
f 1/1/1 2/2/2 3/3/3 4/4/4 
f 5/4/5 6/1/6 7/5/7 8/6/8 
f 9/7/9 10/8/10 11/9/11 12/10/12 13/11/13 14/12/14 15/13/15 16/14/16 17/15/17 18/16/18 19/17/19 20/18/20 21/19/21 22/20/22 23/21/23 24/22/24 25/23/25 26/24/26 27/25/27 28/26/28 29/27/29 30/28/30 31/29/31 32/30/32 
f 33/7/33 34/8/34 10/9/10 9/10/9 35/31/35 36/32/36 37/33/37 
f 38/7/38 39/8/39 34/9/34 33/10/33 
f 12/7/12 11/8/11 39/9/39 38/10/38 40/33/40 41/34/41 42/35/42 
f 10/8/10 6/5/6 5/6/5 11/9/11 
f 43/36/43 44/37/44 45/38/45 46/39/46 47/40/47 48/41/48 49/42/49 50/43/50 51/44/51 52/45/52 53/46/53 54/47/54 55/48/55 56/49/56 57/50/57 58/51/58 59/52/59 60/53/60 61/54/61 62/55/62 63/56/63 64/57/64 65/58/65 66/59/66 
f 34/8/34 7/5/7 6/6/6 10/9/10 
f 46/36/46 45/37/45 67/60/67 68/61/68 
f 39/8/39 8/5/8 7/6/7 34/9/34 
f 33/10/33 69/62/69 70/63/70 71/64/71 72/65/72 38/7/38 
f 11/8/11 5/5/5 8/6/8 39/9/39 
s 1
f 38/10/38 72/62/72 73/4/73 74/66/74 40/33/40 
s off
f 74/67/74 73/5/73 75/68/75 76/69/76 77/6/77 78/70/78 
f 78/66/78 77/1/77 69/65/69 33/7/33 37/33/37 
s 1
f 79/66/79 80/71/80 81/72/81 82/34/82 83/33/83 
s off
f 2/2/2 74/67/74 78/70/78 3/3/3 
s 1
f 84/73/84 85/66/85 86/33/86 87/32/87 88/60/88 
s off
f 44/38/44 43/39/43 89/74/89 90/72/90 
f 44/37/44 1/4/1 4/1/4 45/38/45 
f 23/21/23 22/20/22 57/50/57 56/49/56 
f 45/37/45 4/4/4 3/73/3 67/60/67 
f 68/61/68 35/31/35 9/10/9 46/36/46 
f 43/39/43 12/7/12 42/35/42 89/74/89 
f 90/72/90 2/71/2 1/1/1 44/38/44 
f 36/32/36 35/31/35 68/61/68 67/60/67 
f 90/72/90 89/74/89 42/35/42 41/34/41 
f 91/75/91 92/76/92 93/64/8 94/63/7 
f 75/76/75 73/1/73 72/65/72 71/64/71 
f 70/63/70 69/62/69 77/4/77 76/75/76 
f 76/75/76 75/76/75 92/76/92 91/75/91 
f 75/76/75 71/64/71 93/64/8 92/76/92 
f 71/64/71 70/63/70 94/63/7 93/64/8 
f 70/63/70 76/75/76 91/75/91 94/63/7 
f 95/77/93 96/78/94 97/79/95 98/80/96 99/81/97 100/82/98 101/83/99 102/84/100 103/85/101 104/86/102 
f 104/86/102 103/85/101 105/87/103 106/88/104 
f 103/85/101 102/84/100 107/89/105 105/87/103 
f 102/90/100 101/91/99 108/92/106 107/93/105 
f 101/91/99 100/94/98 109/95/107 108/92/106 
f 100/94/98 99/96/97 110/97/108 109/95/107 
f 99/96/97 98/98/96 111/99/109 110/97/108 
f 98/98/96 97/100/95 112/101/110 111/99/109 
f 97/100/95 96/102/94 113/103/111 112/101/110 
f 96/102/94 95/104/93 114/105/112 113/103/111 
f 95/104/93 104/86/102 106/88/104 114/105/112 
f 114/105/112 106/88/104 105/87/103 107/89/105 108/106/106 109/107/107 110/108/108 111/109/109 112/110/110 113/111/111 
f 115/77/93 116/78/94 117/79/95 118/80/96 119/81/97 120/82/98 121/83/99 122/84/100 123/85/101 124/86/102 
f 124/86/102 123/85/101 125/87/103 126/88/104 
f 123/85/101 122/84/100 127/89/105 125/87/103 
f 122/90/100 121/91/99 128/92/106 127/93/105 
f 121/91/99 120/94/98 129/95/107 128/92/106 
f 120/94/98 119/96/97 130/97/108 129/95/107 
f 119/96/97 118/98/96 131/99/109 130/97/108 
f 118/98/96 117/100/95 132/101/110 131/99/109 
f 117/100/95 116/102/94 133/103/111 132/101/110 
f 116/102/94 115/104/93 134/105/112 133/103/111 
f 115/104/93 124/86/102 126/88/104 134/105/112 
f 134/105/112 126/88/104 125/87/103 127/89/105 128/106/106 129/107/107 130/108/108 131/109/109 132/110/110 133/111/111 
f 135/77/93 136/78/94 137/79/95 138/80/96 139/81/97 140/82/98 141/83/99 142/84/100 143/85/101 144/86/102 
f 144/86/102 143/85/101 145/87/103 146/88/104 
f 143/85/101 142/84/100 147/89/105 145/87/103 
f 142/90/100 141/91/99 148/92/106 147/93/105 
f 141/91/99 140/94/98 149/95/107 148/92/106 
f 140/94/98 139/96/97 150/97/108 149/95/107 
f 139/96/97 138/98/96 151/99/109 150/97/108 
f 138/98/96 137/100/95 152/101/110 151/99/109 
f 137/100/95 136/102/94 153/103/111 152/101/110 
f 136/102/94 135/104/93 154/105/112 153/103/111 
f 135/104/93 144/86/102 146/88/104 154/105/112 
f 154/105/112 146/88/104 145/87/103 147/89/105 148/106/106 149/107/107 150/108/108 151/109/109 152/110/110 153/111/111 
f 13/11/13 12/10/12 43/36/43 66/59/66 
f 155/12/113 156/11/114 157/59/115 158/58/116 
f 15/13/15 14/12/14 65/58/65 64/57/64 
f 159/14/117 160/13/118 161/57/119 162/56/120 
f 17/15/17 16/14/16 63/56/63 62/55/62 
f 163/16/121 164/15/122 165/55/123 166/54/124 
f 19/17/19 18/16/18 61/54/61 60/53/60 
f 167/18/125 168/17/126 169/53/127 170/52/128 
f 21/19/21 20/18/20 59/52/59 58/51/58 
f 171/20/129 172/19/130 173/51/131 174/50/132 
f 47/40/47 46/39/46 9/7/9 32/30/32 
f 175/41/133 176/40/134 177/30/135 178/29/136 
f 49/42/49 48/41/48 31/29/31 30/28/30 
f 179/43/137 180/42/138 181/28/139 182/27/140 
f 51/44/51 50/43/50 29/27/29 28/26/28 
f 183/45/141 184/44/142 185/26/143 186/25/144 
f 53/46/53 52/45/52 27/25/27 26/24/26 
f 187/47/145 188/46/146 189/24/147 190/23/148 
f 55/48/55 54/47/54 25/23/25 24/22/24 
f 191/49/149 192/48/150 193/22/151 194/21/152 
f 14/12/14 13/11/13 156/11/114 155/12/113 
f 13/11/13 66/59/66 157/59/115 156/11/114 
f 66/59/66 65/58/65 158/58/116 157/59/115 
f 65/58/65 14/12/14 155/12/113 158/58/116 
f 16/14/16 15/13/15 160/13/118 159/14/117 
f 15/13/15 64/57/64 161/57/119 160/13/118 
f 64/57/64 63/56/63 162/56/120 161/57/119 
f 63/56/63 16/14/16 159/14/117 162/56/120 
f 18/16/18 17/15/17 164/15/122 163/16/121 
f 17/15/17 62/55/62 165/55/123 164/15/122 
f 62/55/62 61/54/61 166/54/124 165/55/123 
f 61/54/61 18/16/18 163/16/121 166/54/124 
f 20/18/20 19/17/19 168/17/126 167/18/125 
f 19/17/19 60/53/60 169/53/127 168/17/126 
f 60/53/60 59/52/59 170/52/128 169/53/127 
f 59/52/59 20/18/20 167/18/125 170/52/128 
f 22/20/22 21/19/21 172/19/130 171/20/129 
f 21/19/21 58/51/58 173/51/131 172/19/130 
f 58/51/58 57/50/57 174/50/132 173/51/131 
f 57/50/57 22/20/22 171/20/129 174/50/132 
f 32/30/32 31/29/31 178/29/136 177/30/135 
f 31/29/31 48/41/48 175/41/133 178/29/136 
f 48/41/48 47/40/47 176/40/134 175/41/133 
f 47/40/47 32/30/32 177/30/135 176/40/134 
f 30/28/30 29/27/29 182/27/140 181/28/139 
f 29/27/29 50/43/50 179/43/137 182/27/140 
f 50/43/50 49/42/49 180/42/138 179/43/137 
f 49/42/49 30/28/30 181/28/139 180/42/138 
f 28/26/28 27/25/27 186/25/144 185/26/143 
f 27/25/27 52/45/52 183/45/141 186/25/144 
f 52/45/52 51/44/51 184/44/142 183/45/141 
f 51/44/51 28/26/28 185/26/143 184/44/142 
f 26/24/26 25/23/25 190/23/148 189/24/147 
f 25/23/25 54/47/54 187/47/145 190/23/148 
f 54/47/54 53/46/53 188/46/146 187/47/145 
f 53/46/53 26/24/26 189/24/147 188/46/146 
f 24/22/24 23/21/23 194/21/152 193/22/151 
f 23/21/23 56/49/56 191/49/149 194/21/152 
f 56/49/56 55/48/55 192/48/150 191/49/149 
f 55/48/55 24/22/24 193/22/151 192/48/150 
s 2
f 41/34/41 40/33/40 195/33/153 196/34/154 
s off
f 40/33/40 74/66/74 197/66/155 195/33/153 
f 74/66/74 2/71/2 198/71/156 197/66/155 
f 2/71/2 90/72/90 199/72/157 198/71/156 
f 90/72/90 41/34/41 196/34/154 199/72/157 
f 3/73/3 78/66/78 200/66/158 201/73/159 
f 78/66/78 37/33/37 202/33/160 200/66/158 
s 2
f 37/33/37 36/32/36 203/32/161 202/33/160 
s off
f 36/32/36 67/60/67 204/60/162 203/32/161 
f 67/60/67 3/73/3 201/73/159 204/60/162 
f 196/34/154 195/33/153 83/33/83 82/34/82 
f 195/33/153 197/66/155 79/66/79 83/33/83 
f 197/66/155 198/71/156 80/71/80 79/66/79 
f 198/71/156 199/72/157 81/72/81 80/71/80 
f 199/72/157 196/34/154 82/34/82 81/72/81 
f 201/73/159 200/66/158 85/66/85 84/73/84 
f 200/66/158 202/33/160 86/33/86 85/66/85 
f 202/33/160 203/32/161 87/32/87 86/33/86 
f 203/32/161 204/60/162 88/60/88 87/32/87 
f 204/60/162 201/73/159 84/73/84 88/60/88 
# 151 polygons

