# 3ds Max Wavefront OBJ Exporter v0.97b - (c)2007 guruware
# File Created: 19.01.2018 15:04:09

mtllib The House.mtl

#
# object Box001
#

v  -22.8574 0.0000 18.4591
v  34.3739 0.0000 -9.1278
v  26.2587 0.0000 36.8960
v  -21.1901 0.0000 37.5164
v  26.4809 30.3653 45.1835
v  29.3040 30.4167 28.8615
v  -22.2762 30.3942 29.0699
v  -20.9582 30.3240 45.6810
v  26.2587 6.4823 36.8960
v  -21.1901 6.4823 37.5164
v  33.9224 6.4823 -6.5669
v  39.7666 0.0226 -31.6774
v  35.2213 0.0234 -32.4012
v  35.7955 25.2267 -36.9764
v  40.7964 25.2269 -36.9534
v  -23.2770 0.0235 18.1281
v  -23.1820 6.3527 19.2163
v  -20.9582 6.3779 43.5860
v  -24.4366 30.3903 2.1224
v  -24.4383 0.0235 2.1015
v  -24.4557 0.0231 -48.2291
v  -0.6594 0.0237 -48.4256
v  -0.3296 0.0236 -42.9260
v  35.4965 0.0234 -43.7613
v  35.8566 0.0241 -9.2782
v  40.8164 30.3902 -36.9399
v  35.3619 6.3531 -6.2877
v  -22.7984 6.4823 19.1328
v  24.8665 28.1056 36.4201
v  9.0857 28.1057 36.5999
v  9.0857 8.6372 36.5999
v  24.8665 8.6372 36.4201
v  32.7560 27.0912 4.6405
v  28.8528 27.0795 26.3697
v  29.0119 9.7068 26.2899
v  32.5500 9.6507 5.3894
v  26.7155 6.4173 43.2467
v  -24.4554 25.2258 -48.0629
v  -24.4555 30.3892 -48.0289
v  42.8351 30.3921 -48.5047
v  42.8205 25.2288 -48.5487
v  -0.6591 25.2264 -48.2594
v  -24.0543 30.3903 -20.6869
v  35.4964 25.2267 -43.7613
v  -0.3295 25.2266 -42.8429
v  -33.6765 25.2210 -47.8911
v  -31.1308 30.4005 -20.4547
v  -33.7298 30.3832 -47.8380
v  -33.4160 0.0239 -48.1500
v  -29.0872 30.3829 2.6198
v  -30.5858 30.3864 -13.6669
v  -28.7575 0.0233 2.4810
v  -24.4367 39.4714 2.0865
v  -24.4562 38.0626 -14.0161
v  -30.5859 38.0914 -13.6424
v  -29.0873 39.5074 2.5826
v  36.7582 38.0743 -13.8840
v  38.0625 37.4233 -21.3585
v  -24.0544 37.4834 -20.6360
v  -31.1309 37.5139 -20.4057
v  29.1657 41.8360 29.6274
v  -22.2763 41.8361 29.9300
v  38.0734 30.3903 -21.4047
v  -20.6318 32.6565 26.5247
v  27.5601 32.6564 26.2711
v  27.5601 39.5380 26.1874
v  -20.6318 39.5601 26.4401
v  34.3213 32.3453 -3.2767
v  35.7166 32.1714 -11.2746
v  35.7133 36.5064 -11.2654
v  34.3242 36.7716 -3.3035
v  36.7649 30.3899 -13.9046
v  -19.3098 28.0495 45.4656
v  24.8742 28.0877 45.0289
v  -19.3097 8.6552 43.7688
v  24.8743 8.6934 43.3321
v  27.5642 32.6952 28.9800
v  -20.6277 32.6731 29.2326
v  27.5642 39.5578 29.4964
v  -20.6278 39.5579 29.7500
v  -19.3175 28.1057 36.8585
v  -19.3175 8.6373 36.8585
v  8.9394 27.8778 44.2943
v  -19.1349 27.8778 44.5500
v  -19.1349 8.8652 44.5500
v  8.9394 8.8651 44.2943
v  -19.1530 8.8652 36.8570
v  -19.1530 27.8778 36.8570
v  8.9213 8.8651 36.6014
v  8.9213 27.8778 36.6014
v  29.5578 27.0822 26.8452
v  29.7168 9.7096 26.7654
v  33.2549 9.6534 5.8648
v  33.4609 27.0939 5.1160
v  36.2434 32.1718 -10.9195
v  34.8480 32.3457 -2.9216
v  36.2401 36.5068 -10.9103
v  34.8509 36.7720 -2.9484
# 98 vertices

vn -0.4209 -0.8522 0.3109
vn 0.4662 0.5603 0.6847
vn 0.4672 -0.5974 0.6518
vn -0.5199 -0.5864 0.6211
vn 0.4673 0.5807 0.6667
vn 0.8084 0.1906 0.5569
vn -0.8271 0.3801 0.4141
vn -0.5239 0.5656 0.6369
vn 0.2817 -0.8700 0.4047
vn -0.1650 -0.9232 0.3470
vn 0.4500 -0.6690 0.5916
vn 0.6839 -0.6103 -0.3998
vn 0.6156 0.5380 -0.5758
vn 0.5453 -0.6241 -0.5596
vn 0.8953 -0.4455 -0.0043
vn -0.6323 -0.6282 0.4535
vn 0.7174 -0.5319 0.4499
vn -0.5187 -0.6121 0.5969
vn -0.6292 0.0009 0.7772
vn -0.2872 -0.8930 0.3464
vn -0.0031 -0.7054 -0.7088
vn 0.5381 -0.5822 -0.6095
vn 0.5363 0.5838 -0.6096
vn 0.5891 -0.5743 -0.5684
vn 0.5139 -0.6614 0.5462
vn 0.6707 0.7051 0.2303
vn 0.7358 -0.3650 0.5704
vn -0.4269 -0.6692 0.6082
vn -0.5751 -0.5780 0.5789
vn 0.0037 0.7071 0.7071
vn 0.0037 -0.7069 0.7073
vn -0.5746 0.5808 0.5766
vn 0.3491 -0.5696 0.7441
vn 0.7396 -0.5711 -0.3563
vn 0.7278 0.5823 -0.3623
vn 0.3688 0.5860 0.7215
vn 0.4630 -0.6135 0.6397
vn -0.0068 0.0046 -1.0000
vn -0.0051 0.7080 -0.7062
vn 0.6741 0.5620 -0.4794
vn 0.6707 -0.5616 -0.4845
vn 0.5288 0.5747 -0.6246
vn -0.0076 0.7102 -0.7040
vn 0.5460 0.5813 -0.6033
vn 0.5352 -0.5825 -0.6118
vn -0.7722 -0.0065 -0.6354
vn -0.9251 0.3439 -0.1610
vn -0.6406 0.5659 -0.5190
vn -0.6282 -0.5705 -0.5290
vn -0.6213 -0.0048 0.7836
vn -0.6582 -0.7447 0.1102
vn -0.5014 -0.5892 0.6336
vn -0.3157 0.9147 0.2523
vn -0.0002 0.9924 -0.1232
vn -0.7072 0.7061 0.0345
vn -0.4994 0.6259 0.5990
vn 0.6823 0.7164 0.1457
vn 0.6821 0.5296 -0.5042
vn -0.0072 0.6627 -0.7489
vn -0.6375 0.5359 -0.5535
vn 0.4621 0.6282 0.6260
vn -0.5221 0.6099 0.5962
vn 0.9115 0.4113 -0.0065
vn 0.5790 0.5824 0.5707
vn -0.5751 0.5859 0.5710
vn -0.5759 -0.5723 0.5838
vn 0.5782 -0.5755 0.5783
vn 0.7373 0.5673 -0.3669
vn 0.3594 0.5863 0.7260
vn 0.3579 -0.5633 0.7447
vn 0.7274 -0.5921 -0.3468
vn 0.9459 0.0031 0.3244
vn 0.2927 -0.3523 0.8889
vn -0.2787 -0.3505 0.8941
vn 0.3227 0.2486 0.9132
vn -0.3292 0.2668 0.9058
vn -0.3248 0.2650 0.9079
vn 0.3199 0.2572 0.9119
vn -0.2797 -0.3415 0.8973
vn 0.2907 -0.3455 0.8923
vn 0.5786 -0.5804 0.5730
vn 0.5791 0.5786 0.5743
vn 0.5800 0.5774 0.5747
vn -0.5747 0.5774 0.5800
vn -0.5747 -0.5774 0.5800
vn 0.5800 -0.5774 0.5747
vn -0.2973 -0.3015 0.9059
vn -0.2973 0.3015 0.9059
vn 0.3057 -0.3015 0.9031
vn 0.3057 0.3015 0.9031
vn 0.9483 -0.3173 0.0050
vn 0.9644 0.2643 0.0080
vn 0.7536 0.3226 0.5727
vn 0.7654 -0.2669 0.5856
vn 0.7642 0.3006 0.5707
vn 0.9536 0.3012 -0.0017
vn 0.7480 -0.3024 0.5908
vn 0.9533 -0.3010 0.0234
# 98 vertex normals

vt 1.0000 0.5000 0.0000
vt 0.0000 0.5000 0.0000
vt 0.0000 0.0000 0.0000
vt 1.0000 0.0000 0.0000
vt 1.0000 0.0531 0.0000
vt 0.0000 0.2125 0.0000
vt 0.5000 0.0000 0.0000
vt 0.5000 0.5000 0.0000
vt 0.2500 0.0000 0.0000
vt 0.2500 0.5000 0.0000
vt 1.0000 1.0000 0.0000
vt 0.7875 1.0000 0.0000
vt 0.5000 1.0000 0.0000
vt 0.7500 1.0000 0.0000
vt 0.6250 1.0000 0.0000
vt 0.2500 1.0000 0.0000
vt 0.0000 1.0000 0.0000
vt 1.0000 0.7500 0.0000
vt 0.7500 0.5000 0.0000
vt 0.5900 1.0000 0.0000
vt 0.5900 0.5000 0.0000
vt 0.0531 1.0000 0.0000
vt 0.6250 0.0000 0.0000
vt 0.7500 0.0000 0.0000
vt 1.0000 0.1250 0.0000
vt 1.0000 0.3125 0.0000
vt 0.0000 0.8750 0.0000
vt 0.0000 0.7500 0.0000
vt 0.1250 1.0000 0.0000
vt 0.3125 1.0000 0.0000
# 30 texture coords

o Box001
g Box001
usemtl wire_086086086
s off
f 1/1/1 2/2/2 3/3/3 4/4/4 
f 5/4/5 6/5/6 7/6/7 8/3/8 
f 3/4/3 9/1/9 10/2/10 4/3/4 
f 2/7/2 11/8/11 9/2/9 3/3/3 
f 12/3/12 13/9/13 14/10/14 15/2/15 
s 2
f 16/7/16 17/8/17 18/1/18 8/11/8 7/12/7 19/13/19 20/9/20 
s off
f 21/11/21 22/14/22 23/15/23 24/13/24 13/16/13 12/17/12 25/2/25 16/1/16 20/18/20 
s 1
f 12/4/12 15/19/15 26/13/26 27/8/27 25/7/25 
s off
f 4/4/4 10/1/10 28/8/28 1/7/1 
f 29/11/29 30/20/30 31/21/31 32/1/32 
f 33/13/33 34/22/34 35/2/35 36/8/36 
f 2/2/2 1/1/1 16/1/16 25/2/25 
f 10/2/10 9/1/9 37/1/37 18/2/18 
f 11/8/11 2/7/2 25/7/25 27/8/27 
f 9/2/9 11/8/11 27/8/27 37/2/37 
f 1/7/1 28/8/28 17/8/17 16/7/16 
f 28/8/28 10/1/10 18/1/18 17/8/17 
f 38/1/38 39/11/39 40/17/40 41/2/41 42/8/42 
f 43/11/43 26/17/26 40/17/40 39/11/39 
s 1
f 26/17/26 15/2/15 41/2/41 40/17/40 
s off
f 15/2/15 14/10/14 44/8/44 45/8/45 42/8/42 41/2/41 
s 2
f 46/1/46 47/11/47 48/11/48 
s off
f 24/7/24 23/23/23 45/8/45 44/8/44 
f 22/24/22 21/4/21 38/1/38 42/8/42 
s 2
f 47/17/47 46/2/46 49/3/49 
f 50/13/50 51/16/51 47/17/47 49/3/49 52/9/52 
s off
f 53/13/53 54/16/54 55/16/55 56/13/56 
f 43/11/43 39/11/39 48/11/48 47/11/47 
f 39/11/39 38/1/38 46/1/46 48/11/48 
f 38/2/38 21/3/21 49/3/49 46/2/46 
f 21/3/21 20/9/20 52/9/52 49/3/49 
f 20/9/20 19/13/19 50/13/50 52/9/52 
f 57/25/57 58/26/58 59/27/59 54/28/54 
f 54/16/54 59/29/59 60/17/60 55/16/55 
f 57/25/57 54/28/54 53/2/53 
f 61/5/61 57/25/57 53/2/53 62/6/62 
f 63/26/63 26/1/26 43/27/43 
f 23/23/23 22/24/22 42/8/42 45/8/45 
f 13/9/13 24/7/24 44/8/44 14/10/14 
s 2
f 51/16/51 50/13/50 56/13/56 55/16/55 
s off
f 50/13/50 19/13/19 53/13/53 56/13/56 
s 2
f 19/2/19 7/6/7 62/6/62 53/2/53 
s off
f 64/6/64 65/5/65 66/5/66 67/6/67 
f 68/5/68 69/25/69 70/25/70 71/5/71 
f 72/25/72 63/26/63 58/26/58 57/25/57 
f 63/26/63 43/27/43 59/27/59 58/26/58 
f 43/29/43 47/17/47 60/17/60 59/29/59 
s 2
f 47/17/47 51/16/51 55/16/55 60/17/60 
s off
f 5/11/5 8/17/8 73/17/73 74/11/74 
f 8/17/8 18/2/18 75/2/75 73/17/73 
f 18/2/18 37/1/37 76/1/76 75/2/75 
f 37/1/37 5/11/5 74/11/74 76/1/76 
f 7/6/7 6/5/6 77/5/77 78/6/78 
f 6/5/6 61/5/61 79/5/79 77/5/77 
f 61/5/61 62/6/62 80/6/80 79/5/79 
f 62/6/62 7/6/7 78/6/78 80/6/80 
f 74/11/74 73/17/73 81/17/81 30/20/30 29/11/29 
f 73/17/73 75/2/75 82/2/82 81/17/81 
f 75/2/75 76/1/76 32/1/32 31/21/31 82/2/82 
f 76/1/76 74/11/74 29/11/29 32/1/32 
f 78/6/78 77/5/77 65/5/65 64/6/64 
f 77/5/77 79/5/79 66/5/66 65/5/65 
f 79/5/79 80/6/80 67/6/67 66/5/66 
f 80/6/80 78/6/78 64/6/64 67/6/67 
f 83/20/83 84/17/84 85/2/85 86/21/86 
f 81/17/81 82/2/82 87/2/87 88/17/88 
f 82/2/82 31/21/31 89/21/89 87/2/87 
f 31/21/31 30/20/30 90/20/90 89/21/89 
f 30/20/30 81/17/81 88/17/88 90/20/90 
f 88/17/88 87/2/87 85/2/85 84/17/84 
f 87/2/87 89/21/89 86/21/86 85/2/85 
f 89/21/89 90/20/90 83/20/83 86/21/86 
f 90/20/90 88/17/88 84/17/84 83/20/83 
s 1
f 6/22/6 5/17/5 91/22/91 
f 5/17/5 37/2/37 92/2/92 91/22/91 
f 37/2/37 27/8/27 93/8/93 92/2/92 
f 27/8/27 26/13/26 94/13/94 93/8/93 
f 26/13/26 63/30/63 94/13/94 
f 63/30/63 72/29/72 94/13/94 
f 72/29/72 6/22/6 91/22/91 94/13/94 
s off
f 91/22/91 92/2/92 35/2/35 34/22/34 
f 92/2/92 93/8/93 36/8/36 35/2/35 
f 93/8/93 94/13/94 33/13/33 36/8/36 
f 94/13/94 91/22/91 34/22/34 33/13/33 
f 6/5/6 72/25/72 95/25/95 96/5/96 
f 72/25/72 57/25/57 97/25/97 95/25/95 
f 57/25/57 61/5/61 98/5/98 97/25/97 
f 61/5/61 6/5/6 96/5/96 98/5/98 
f 96/5/96 95/25/95 69/25/69 68/5/68 
f 95/25/95 97/25/97 70/25/70 69/25/69 
f 97/25/97 98/5/98 71/5/71 70/25/70 
f 98/5/98 96/5/96 68/5/68 71/5/71 
# 85 polygons - 7 triangles

